<svg xmlns="http://www.w3.org/2000/svg" width="768" height="768" viewBox="0 0 768 768">
  <defs>
    <radialGradient id="bgxpaycatgamessvg" cx="16%" cy="12%" r="78%">
      <stop offset="0" stop-color="#D94CFF" stop-opacity="0.55"/>
      <stop offset="0.42" stop-color="#15224A" stop-opacity="0.96"/>
      <stop offset="1" stop-color="#07091B"/>
    </radialGradient>
    <linearGradient id="brandxpaycatgamessvg" x1="0" x2="1" y1="0" y2="1">
      <stop offset="0" stop-color="#D94CFF"/>
      <stop offset="1" stop-color="#58E8FF"/>
    </linearGradient>
    <filter id="softGlowxpaycatgamessvg" x="-45%" y="-45%" width="190%" height="190%">
      <feGaussianBlur stdDeviation="16" result="blur"/>
      <feMerge><feMergeNode in="blur"/><feMergeNode in="SourceGraphic"/></feMerge>
    </filter>
  </defs>

  <rect width="768" height="768" rx="84" fill="url(#bgxpaycatgamessvg)"/>
  <rect x="26" y="26" width="716" height="716" rx="66" fill="none" stroke="#D94CFF" stroke-opacity="0.24" stroke-width="2"/>

  <g opacity="0.18" stroke="#FFFFFF" stroke-width="2" fill="none">
    <path d="M96 204 C206 148 282 162 372 210 C486 270 580 246 672 184"/>
    <path d="M92 584 C222 516 310 544 420 584 C546 630 628 594 706 540"/>
    <rect x="92" y="272" width="126" height="126" rx="18"/>
    <rect x="552" y="246" width="94" height="94" rx="16"/>
    <rect x="152" y="510" width="82" height="82" rx="14"/>
    <path d="M500 118l38 38-38 38-38-38z"/>
    <path d="M516 510l56 56-56 56-56-56z"/>
  </g>

  <circle cx="112" cy="126" r="8" fill="#FFFFFF" opacity="0.72"/>
  <circle cx="646" cy="152" r="7" fill="#58E8FF" opacity="0.9"/>
  <circle cx="610" cy="628" r="6" fill="#D94CFF" opacity="0.85"/>

  <g filter="url(#softGlowxpaycatgamessvg)">
    <circle cx="384" cy="318" r="150" fill="url(#brandxpaycatgamessvg)" opacity="0.96"/>
    <circle cx="384" cy="318" r="112" fill="#071026" opacity="0.82"/>
    <text x="384" y="362" text-anchor="middle" font-family="Arial, Helvetica, sans-serif" font-size="118" font-weight="900" fill="#F0FDFF">?</text>
  </g>

  <rect x="186" y="520" width="396" height="72" rx="36" fill="#07091B" opacity="0.52" stroke="#D94CFF" stroke-opacity="0.28"/>
  <text x="384" y="568" text-anchor="middle" font-family="Arial, Helvetica, sans-serif" font-size="38" font-weight="900" letter-spacing="4" fill="#F0FDFF">GAMES</text>
  <text x="384" y="682" text-anchor="middle" font-family="Arial, Helvetica, sans-serif" font-size="30" font-weight="900" letter-spacing="2" fill="#FFFFFF" opacity="0.70">XPayStore</text>
</svg>